<svg width="91" height="50" viewBox="0 0 91 50" fill="none" xmlns="http://www.w3.org/2000/svg">
<rect width="91" height="50" fill="white"/>
<path d="M27.2175 9.10239C26.8932 8.60575 26.4194 8.59149 25.8795 8.57523C25.8183 8.57339 25.7563 8.57153 25.6936 8.56893C25.6458 8.56673 25.5931 8.56758 25.538 8.56846C25.319 8.57198 25.0629 8.57609 24.9339 8.39212C24.7843 8.17883 24.7985 7.76663 24.8102 7.42635C24.8139 7.31882 24.8173 7.21841 24.8153 7.1338C24.7943 6.34332 24.7504 5.50363 24.4453 5.22292C24.2152 5.01231 23.5268 5.04149 22.892 5.0684C22.6862 5.07712 22.486 5.0856 22.3089 5.0856H8.79596C8.52389 5.0856 8.23869 5.06345 7.95847 5.04168C7.41245 4.99927 6.88533 4.95832 6.511 5.0856C5.96775 5.27123 5.93096 6.24667 5.89633 7.16519L5.89446 7.21461C5.86538 7.97288 5.67746 8.55799 5.05465 8.49906C4.33029 8.43161 3.6095 8.41035 3.28199 9.06594C2.89519 9.84161 2.97496 10.6536 3.11785 12.1079C3.13826 12.3157 3.15996 12.5365 3.18177 12.7723H27.4264C27.4403 12.6 27.455 12.4299 27.4696 12.2625C27.5831 10.9541 27.682 9.81402 27.2175 9.10239Z" fill="#8047F8"/>
<path fill-rule="evenodd" clip-rule="evenodd" d="M5.06987 14.2147C5.44852 19.3395 5.82304 24.4701 6.19757 29.6009L6.1978 29.604C6.40115 32.3898 6.60451 35.1757 6.80853 37.9606H7.58212C7.63483 38.3965 7.69515 38.9347 7.75874 39.5021C7.88783 40.6539 8.03044 41.9264 8.15034 42.7083H8.2359C9.02387 42.42 14.4712 40.0916 14.4736 30.8218C14.4726 30.7954 14.4735 30.7689 14.4762 30.7427H13.1304C13.0653 30.7421 13.0021 30.7203 12.9507 30.6808C12.8993 30.6413 12.8624 30.5861 12.8458 30.5238C12.7146 30.1999 12.6089 29.8664 12.5295 29.5264C11.7378 29.9736 11.1091 30.6564 10.733 31.4775C10.3759 30.6365 10.3292 29.6983 10.6009 28.8267C10.8727 27.9551 11.4456 27.2057 12.2195 26.7093C12.2295 24.0043 13.2423 21.3968 15.0661 19.3804L15.0946 19.3553C15.1476 19.3095 15.2155 19.284 15.2859 19.2834C15.3266 19.2838 15.3668 19.2925 15.4039 19.309C15.4415 19.3257 15.4751 19.35 15.5026 19.3804C17.3478 21.3996 18.3552 24.0321 18.3239 26.7531C19.1123 27.2356 19.6969 27.9845 19.9691 28.8608C20.2413 29.7371 20.1827 30.6813 19.8042 31.5181C19.4301 30.6957 18.8008 30.0123 18.0076 29.5671C17.9592 29.8966 17.8699 30.219 17.7419 30.527C17.6977 30.6583 17.6091 30.7427 17.5205 30.7427H16.0853C16.0876 30.7584 16.0892 30.7742 16.0901 30.7901L16.0907 30.7937V30.8014C16.0912 30.815 16.0912 30.8287 16.0907 30.8424C16.1104 40.3783 21.902 42.5428 22.3902 42.7083H22.5572C22.5998 41.9572 22.7386 40.9208 22.8739 39.9104C22.9671 39.2142 23.0587 38.5302 23.116 37.9606H23.8985C24.149 34.4527 24.4066 30.9546 24.6642 27.4564L24.6644 27.4545L24.6645 27.4535C24.994 22.9789 25.3235 18.5042 25.6381 14.0087H5.11998C5.06092 14.0202 5.06495 14.1169 5.06987 14.2147ZM15.2859 19.2834L15.2844 19.2834H15.2875L15.2859 19.2834Z" fill="#8047F8"/>
<path d="M34.3088 10.6982C34.3088 9.43316 34.7446 8.45274 35.6162 7.75696C36.5037 7.04537 37.8349 6.68958 39.6099 6.68958C40.7827 6.68958 41.7811 6.80027 42.6052 7.02165V10.295C41.7177 10.0262 40.8381 9.89174 39.9665 9.89174C39.1107 9.89174 38.556 9.99453 38.3025 10.2001C38.0489 10.3899 37.9221 10.6745 37.9221 11.054V19.0238C37.9221 19.7829 38.5164 20.1624 39.705 20.1624C40.9094 20.1624 41.8999 20.0438 42.6765 19.8066V23.0088C41.8207 23.246 40.7827 23.3646 39.5624 23.3646C37.7874 23.3646 36.4641 23.0167 35.5925 22.3209C34.7367 21.6251 34.3088 20.6447 34.3088 19.3796V10.6982Z" fill="#403937"/>
<path d="M49.6205 12.9516C49.6205 12.3507 49.2877 12.0502 48.6221 12.0502C47.9564 12.0502 47.6236 12.3507 47.6236 12.9516V19.5457C47.6236 20.1466 47.9564 20.447 48.6221 20.447C49.2877 20.447 49.6205 20.1466 49.6205 19.5457V12.9516ZM44.1054 12.833C44.1054 11.6312 44.4778 10.6982 45.2227 10.0341C45.9834 9.35409 47.1165 9.01411 48.6221 9.01411C50.1276 9.01411 51.2528 9.35409 51.9977 10.0341C52.7584 10.6982 53.1387 11.6312 53.1387 12.833V19.6643C53.1387 20.8661 52.7584 21.807 51.9977 22.4869C51.2528 23.1511 50.1276 23.4832 48.6221 23.4832C47.1165 23.4832 45.9834 23.1511 45.2227 22.4869C44.4778 21.807 44.1054 20.8661 44.1054 19.6643V12.833Z" fill="#403937"/>
<path d="M55.4492 9.08527C55.4492 6.41284 56.8597 5.07663 59.6806 5.07663C60.0451 5.07663 60.4809 5.11617 60.9881 5.19523V7.94672C60.7345 7.9151 60.4968 7.89928 60.2749 7.89928C59.4667 7.89928 59.0625 8.2788 59.0625 9.03783V9.25131H60.9881V12.0502H59.0625V23.246H55.4492V12.0502H54.0942V9.25131H55.4492V9.08527Z" fill="#403937"/>
<path d="M62.4601 9.08527C62.4601 6.41284 63.8705 5.07663 66.6915 5.07663C67.056 5.07663 67.4918 5.11617 67.9989 5.19523V7.94672C67.7453 7.9151 67.5076 7.89928 67.2858 7.89928C66.4775 7.89928 66.0734 8.2788 66.0734 9.03783V9.25131H67.9989V12.0502H66.0734V23.246H62.4601V12.0502H61.1051V9.25131H62.4601V9.08527Z" fill="#403937"/>
<path d="M68.8291 19.261V12.833C68.8291 11.6312 69.2015 10.6982 69.9464 10.0341C70.6912 9.35409 71.8164 9.01411 73.322 9.01411C76.2221 9.01411 77.6722 10.2871 77.6722 12.833V17.6481H72.276V18.9764C72.276 19.4508 72.4028 19.7908 72.6563 19.9964C72.9258 20.1861 73.5042 20.281 74.3917 20.281C75.295 20.281 76.2776 20.1229 77.3394 19.8066V22.9376C76.2301 23.238 75.0415 23.3883 73.7736 23.3883C70.4773 23.3883 68.8291 22.0125 68.8291 19.261ZM72.276 14.9203H74.3679V12.8804C74.3679 12.2795 74.0193 11.9791 73.322 11.9791C72.6247 11.9791 72.276 12.2795 72.276 12.8804V14.9203Z" fill="#403937"/>
<path d="M79.09 19.261V12.833C79.09 11.6312 79.4624 10.6982 80.2073 10.0341C80.9521 9.35409 82.0773 9.01411 83.5829 9.01411C86.483 9.01411 87.9331 10.2871 87.9331 12.833V17.6481H82.5369V18.9764C82.5369 19.4508 82.6637 19.7908 82.9173 19.9964C83.1867 20.1861 83.7651 20.281 84.6526 20.281C85.5559 20.281 86.5385 20.1229 87.6003 19.8066V22.9376C86.491 23.238 85.3024 23.3883 84.0345 23.3883C80.7382 23.3883 79.09 22.0125 79.09 19.261ZM82.5369 14.9203H84.6288V12.8804C84.6288 12.2795 84.2802 11.9791 83.5829 11.9791C82.8856 11.9791 82.5369 12.2795 82.5369 12.8804V14.9203Z" fill="#403937"/>
<path d="M40.0305 31.9797C40.0305 30.8119 39.4128 30.2281 38.1775 30.2281H36.2075V40.874H38.1775C39.4128 40.874 40.0305 40.2771 40.0305 39.0834V31.9797ZM34.8226 29.0214H38.2555C39.2958 29.0214 40.0825 29.2874 40.6156 29.8194C41.1488 30.3513 41.4154 31.065 41.4154 31.9602V39.1224C41.4154 40.0436 41.1553 40.7702 40.6352 41.3022C40.115 41.8341 39.3348 42.1001 38.2945 42.1001H34.8226V29.0214Z" fill="#403937"/>
<path d="M43.6944 39.2781V33.8675C43.6944 32.9463 43.9545 32.2132 44.4746 31.6683C45.0078 31.1104 45.8075 30.8314 46.8737 30.8314C47.94 30.8314 48.7267 31.1104 49.2339 31.6683C49.754 32.2132 50.0141 32.9463 50.0141 33.8675V37.254H45.0598V39.2197C45.0598 39.8036 45.2418 40.2382 45.6059 40.5237C45.97 40.8091 46.5357 40.9518 47.3029 40.9518C48.0701 40.9518 48.8633 40.8351 49.6825 40.6015V41.886C49.0323 42.0936 48.2586 42.1974 47.3614 42.1974C44.9167 42.1974 43.6944 41.2243 43.6944 39.2781ZM45.0598 36.1057H48.6877V33.8675C48.6877 32.6479 48.0831 32.0381 46.8737 32.0381C45.6644 32.0381 45.0598 32.6479 45.0598 33.8675V36.1057Z" fill="#403937"/>
<path d="M52.3849 28.0872H53.7697V42.1001H52.3849V28.0872Z" fill="#403937"/>
<path d="M57.1438 29.7804C56.5847 29.7804 56.3051 29.482 56.3051 28.8852C56.3051 28.2883 56.5847 27.9899 57.1438 27.9899C57.716 27.9899 58.002 28.2883 58.002 28.8852C58.002 29.482 57.716 29.7804 57.1438 29.7804ZM56.4611 31.1039H57.846V42.1001H56.4611V31.1039Z" fill="#403937"/>
<path d="M64.9846 31.026H66.3889L63.9313 42.1001H61.9808L59.5231 31.026H60.947L62.0198 36.1057L62.9755 41.127C63.3656 38.9732 64.0353 35.6062 64.9846 31.026Z" fill="#403937"/>
<path d="M67.8663 39.2781V33.8675C67.8663 32.9463 68.1264 32.2132 68.6465 31.6683C69.1796 31.1104 69.9794 30.8314 71.0456 30.8314C72.1119 30.8314 72.8986 31.1104 73.4058 31.6683C73.9259 32.2132 74.186 32.9463 74.186 33.8675V37.254H69.2317V39.2197C69.2317 39.8036 69.4137 40.2382 69.7778 40.5237C70.1419 40.8091 70.7075 40.9518 71.4747 40.9518C72.2419 40.9518 73.0352 40.8351 73.8544 40.6015V41.886C73.2042 42.0936 72.4305 42.1974 71.5333 42.1974C69.0886 42.1974 67.8663 41.2243 67.8663 39.2781ZM69.2317 36.1057H72.8596V33.8675C72.8596 32.6479 72.2549 32.0381 71.0456 32.0381C69.8363 32.0381 69.2317 32.6479 69.2317 33.8675V36.1057Z" fill="#403937"/>
<path d="M80.1457 30.9676H80.6333V32.2911H79.9701C79.502 32.2911 79.0794 32.4143 78.7023 32.6609C78.5853 32.7387 78.3317 32.9139 77.9416 33.1864V42.1001H76.5567V31.026H77.8831V31.8629C77.9221 31.837 78.0196 31.7656 78.1757 31.6488C78.3447 31.5321 78.4422 31.4672 78.4682 31.4542C78.5073 31.4283 78.5918 31.3764 78.7218 31.2985C78.8649 31.2207 78.9689 31.1752 79.0339 31.1623C79.1119 31.1363 79.2159 31.1039 79.346 31.065C79.541 31.0001 79.8076 30.9676 80.1457 30.9676Z" fill="#403937"/>
<path d="M86.5668 31.026H87.9517L84.9089 45H83.5826L84.1872 42.1001H83.5045L81.0859 31.026H82.4903L83.6606 36.5339L84.5188 41.127C84.7789 39.596 85.0649 38.0649 85.377 36.5339L86.5668 31.026Z" fill="#403937"/>
</svg>
